REM DIRINDEX 1\2,1\3,1\4,1\5,1\6
REM DIRNAME cjc129,folder01,folder02,folder03,folder04,folder05
TITLE ""
FILE "DISC5Track05.mp3" MP3
  TRACK 01 AUDIO
    TITLE "0:"
    INDEX 01 00:00:00
  TRACK 02 AUDIO
    TITLE "3:cjc129_3988"
    INDEX 01 00:00:05
  TRACK 03 AUDIO
    TITLE "0:"
    INDEX 01 00:02:08
  TRACK 04 AUDIO
    TITLE "5:cjc129_3989"
    INDEX 01 00:02:42
  TRACK 05 AUDIO
    TITLE "0:"
    INDEX 01 00:04:54
  TRACK 06 AUDIO
    TITLE "4:cjc129_3990"
    INDEX 01 00:05:44
  TRACK 07 AUDIO
    TITLE "0:"
    INDEX 01 00:07:47
  TRACK 08 AUDIO
    TITLE "6:cjc129_3991"
    INDEX 01 00:08:05
  TRACK 09 AUDIO
    TITLE "0:"
    INDEX 01 00:12:11
  TRACK 10 AUDIO
    TITLE "3:cjc129_3992"
    INDEX 01 00:13:59
  TRACK 11 AUDIO
    TITLE "0:"
    INDEX 01 00:15:68
  TRACK 12 AUDIO
    TITLE "5:cjc129_3993"
    INDEX 01 00:16:24
  TRACK 13 AUDIO
    TITLE "0:"
    INDEX 01 00:18:60
  TRACK 14 AUDIO
    TITLE "4:cjc129_3994"
    INDEX 01 00:19:50
  TRACK 15 AUDIO
    TITLE "0:"
    INDEX 01 00:21:57
  TRACK 16 AUDIO
    TITLE "6:cjc129_3995"
    INDEX 01 00:22:15
  TRACK 17 AUDIO
    TITLE "0:"
    INDEX 01 00:26:66
  TRACK 18 AUDIO
    TITLE "3:cjc129_3996"
    INDEX 01 00:28:43
  TRACK 19 AUDIO
    TITLE "0:"
    INDEX 01 00:30:59
  TRACK 20 AUDIO
    TITLE "5:cjc129_3997"
    INDEX 01 00:31:16
  TRACK 21 AUDIO
    TITLE "0:"
    INDEX 01 00:35:17
  TRACK 22 AUDIO
    TITLE "4:cjc129_3998"
    INDEX 01 00:36:05
  TRACK 23 AUDIO
    TITLE "0:"
    INDEX 01 00:38:24
  TRACK 24 AUDIO
    TITLE "6:cjc129_3999"
    INDEX 01 00:38:55
  TRACK 25 AUDIO
    TITLE "0:"
    INDEX 01 00:42:47
  TRACK 26 AUDIO
    TITLE "3:cjc129_4000"
    INDEX 01 00:44:22
  TRACK 27 AUDIO
    TITLE "0:"
    INDEX 01 00:45:35
  TRACK 28 AUDIO
    TITLE "5:cjc129_4001"
    INDEX 01 00:45:67
  TRACK 29 AUDIO
    TITLE "0:"
    INDEX 01 00:49:69
  TRACK 30 AUDIO
    TITLE "4:cjc129_4002"
    INDEX 01 00:50:62
  TRACK 31 AUDIO
    TITLE "0:"
    INDEX 01 00:52:00
  TRACK 32 AUDIO
    TITLE "6:cjc129_4003"
    INDEX 01 00:52:32
  TRACK 33 AUDIO
    TITLE "0:"
    INDEX 01 00:57:29
  TRACK 34 AUDIO
    TITLE "3:cjc129_4004"
    INDEX 01 00:59:04
  TRACK 35 AUDIO
    TITLE "0:"
    INDEX 01 01:00:47
  TRACK 36 AUDIO
    TITLE "5:cjc129_4005"
    INDEX 01 01:01:03
  TRACK 37 AUDIO
    TITLE "0:"
    INDEX 01 01:06:24
  TRACK 38 AUDIO
    TITLE "4:cjc129_4006"
    INDEX 01 01:07:15
  TRACK 39 AUDIO
    TITLE "0:"
    INDEX 01 01:08:56
  TRACK 40 AUDIO
    TITLE "6:cjc129_4007"
    INDEX 01 01:09:14
  TRACK 41 AUDIO
    TITLE "0:"
    INDEX 01 01:13:12
  TRACK 42 AUDIO
    TITLE "3:cjc129_4008"
    INDEX 01 01:14:66
  TRACK 43 AUDIO
    TITLE "0:"
    INDEX 01 01:16:09
  TRACK 44 AUDIO
    TITLE "5:cjc129_4009"
    INDEX 01 01:16:40
  TRACK 45 AUDIO
    TITLE "0:"
    INDEX 01 01:19:36
  TRACK 46 AUDIO
    TITLE "4:cjc129_4010"
    INDEX 01 01:20:28
  TRACK 47 AUDIO
    TITLE "0:"
    INDEX 01 01:21:45
  TRACK 48 AUDIO
    TITLE "6:cjc129_4011"
    INDEX 01 01:21:74
  TRACK 49 AUDIO
    TITLE "0:"
    INDEX 01 01:26:50
  TRACK 50 AUDIO
    TITLE "3:cjc129_4012"
    INDEX 01 01:28:25
  TRACK 51 AUDIO
    TITLE "0:"
    INDEX 01 01:29:41
  TRACK 52 AUDIO
    TITLE "5:cjc129_4013"
    INDEX 01 01:29:74
  TRACK 53 AUDIO
    TITLE "0:"
    INDEX 01 01:32:17
  TRACK 54 AUDIO
    TITLE "4:cjc129_4014"
    INDEX 01 01:33:11
  TRACK 55 AUDIO
    TITLE "0:"
    INDEX 01 01:34:26
  TRACK 56 AUDIO
    TITLE "6:cjc129_4015"
    INDEX 01 01:34:59
  TRACK 57 AUDIO
    TITLE "0:"
    INDEX 01 01:39:06
  TRACK 58 AUDIO
    TITLE "3:cjc129_4016"
    INDEX 01 01:40:54
  TRACK 59 AUDIO
    TITLE "0:"
    INDEX 01 01:42:04
  TRACK 60 AUDIO
    TITLE "5:cjc129_4017"
    INDEX 01 01:42:33
  TRACK 61 AUDIO
    TITLE "0:"
    INDEX 01 01:46:16
  TRACK 62 AUDIO
    TITLE "4:cjc129_4018"
    INDEX 01 01:47:07
  TRACK 63 AUDIO
    TITLE "0:"
    INDEX 01 01:48:30
  TRACK 64 AUDIO
    TITLE "6:cjc129_4019"
    INDEX 01 01:48:60
  TRACK 65 AUDIO
    TITLE "0:"
    INDEX 01 01:51:74
  TRACK 66 AUDIO
    TITLE "3:cjc129_4020"
    INDEX 01 01:53:51
  TRACK 67 AUDIO
    TITLE "0:"
    INDEX 01 01:55:09
  TRACK 68 AUDIO
    TITLE "5:cjc129_4021"
    INDEX 01 01:55:38
  TRACK 69 AUDIO
    TITLE "0:"
    INDEX 01 02:02:20
  TRACK 70 AUDIO
    TITLE "4:cjc129_4022"
    INDEX 01 02:03:12
  TRACK 71 AUDIO
    TITLE "0:"
    INDEX 01 02:04:45
  TRACK 72 AUDIO
    TITLE "6:cjc129_4023"
    INDEX 01 02:05:01
  TRACK 73 AUDIO
    TITLE "0:"
    INDEX 01 02:08:62
